DataType=double
version=3
OpenSimVersion=4.2
endheader
time	ground_force_r_vx	ground_force_r_vy	ground_force_r_vz	ground_force_r_px	ground_force_r_py	ground_force_r_pz	ground_force_l_vx	ground_force_l_vy	ground_force_l_vz	ground_force_l_px	ground_force_l_py	ground_force_l_pz	ground_torque_r_x	ground_torque_r_y	ground_torque_r_z	ground_torque_l_x	ground_torque_l_y	ground_torque_l_z
0.868	-73.56882867919127	37.0449678980637	0	0	0	0	0	0	0	0	0	0	0	0	-2.37960540501931	0	0	0
0.8693459118407026	-98.11203648082682	45.35035799787819	0	0	0	0	0	0	0	0	0	0	0	0	-3.118503714671721	0	0	0
0.8706918236814054	-115.3766751155518	53.21835555493204	0	0	0	0	0	0	0	0	0	0	0	0	-3.484255605251947	0	0	0
0.8720377355221081	-149.8952936988667	71.1793279872555	0	0	0	0	0	0	0	0	0	0	0	0	-4.209602928728177	0	0	0
0.8733836473628107	-207.7601568136502	104.5735516511881	0	0	0	0	0	0	0	0	0	0	0	0	-5.388819508806006	0	0	0
0.8747295592035135	-274.5462930387652	150.8422244052637	0	0	0	0	0	0	0	0	0	0	0	0	-6.566592911483178	0	0	0
0.8760754710442161	-338.2895749066363	208.6402880475102	0	0	0	0	0	0	0	0	0	0	0	0	-7.358645299227426	0	0	0
0.8774213828849188	-413.7671619557797	294.3791245062207	0	0	0	0	0	0	0	0	0	0	0	0	-7.866078691038638	0	0	0
0.8787672947256215	-512.236551867044	429.4332196349706	0	0	0	0	0	0	0	0	0	0	0	0	-8.052281500719918	0	0	0
0.8801132065663242	-618.1063564055424	620.9456857855528	0	0	0	0	0	0	0	0	0	0	0	0	-7.361761961428741	0	0	0
0.8814591184070268	-528.0431137012573	809.1167061383652	0	0	0	0	0	0	0	0	0	0	0	0	0.1661404314815229	0	0	0
0.8828050302477296	-418.3695753130451	927.3481729636067	0	0	0	0	0	0	0	0	0	0	0	0	7.134452261471332	0	0	0
0.8841509420884323	-412.562744464208	1039.983795592558	0	0	0	0	0	0	0	0	0	0	0	0	10.42966930914487	0	0	0
0.8854968539291349	-368.6003229364719	1163.977099397663	0	0	0	0	0	0	0	0	0	0	0	0	15.12233726771161	0	0	0
0.8868427657698377	-358.9482649093945	1275.715426068385	0	0	0	0	0	0	0	0	0	0	0	0	18.3726137264075	0	0	0
0.8881886776105403	-303.7250147248361	1375.339773270475	0	0	0	0	0	0	0	0	0	0	0	0	22.69340369792897	0	0	0
0.889534589451243	-245.384097400973	1459.525031970447	0	0	0	0	0	0	0	0	0	0	0	0	26.58328097001584	0	0	0
0.8908805012919456	-170.7939587870898	1522.369502014062	0	0	0	0	0	0	0	0	0	0	0	0	30.24889398648579	0	0	0
0.8922264131326484	-119.7820481736901	1573.823510995505	0	0	0	0	0	0	0	0	0	0	0	0	32.72308001115322	0	0	0
0.893572324973351	-78.59982478246272	1626.961249362351	0	0	0	0	0	0	0	0	0	0	0	0	34.78450046526388	0	0	0
0.8949182368140538	-64.56115820005641	1657.217701145574	0	0	0	0	0	0	0	0	0	0	0	0	35.3796814684591	0	0	0
0.8962641486547565	-63.75155287408711	1666.499922549961	0	0	0	0	0	0	0	0	0	0	0	0	35.01478148993448	0	0	0
0.8976100604954591	-72.56626528419521	1668.287107697902	0	0	0	0	0	0	0	0	0	0	0	0	34.16416398180253	0	0	0
0.8989559723361618	-85.10981053692753	1664.925761234047	0	0	0	0	0	0	0	0	0	0	0	0	33.06416647729576	0	0	0
0.9003018841768645	-116.2488447983525	1670.374985039541	0	0	0	0	0	0	0	0	0	0	0	0	31.57738559680075	0	0	0
0.9016477960175672	-155.1845524756427	1689.313675582099	0	0	0	0	0	0	0	0	0	0	0	0	30.19135143342389	0	0	0
0.9029937078582698	-191.916099949594	1692.758468753345	0	0	0	0	0	0	0	0	0	0	0	0	28.59400978353623	0	0	0
0.9043396196989726	-218.9544445705496	1674.380394695339	0	0	0	0	0	0	0	0	0	0	0	0	26.85513442148333	0	0	0
0.9056855315396752	-240.5489488498999	1651.584751709284	0	0	0	0	0	0	0	0	0	0	0	0	25.20753319223751	0	0	0
0.9070314433803779	-259.0910553453094	1626.434373959864	0	0	0	0	0	0	0	0	0	0	0	0	23.61277570142689	0	0	0
0.9083773552210807	-277.0438998460813	1603.960134934784	0	0	0	0	0	0	0	0	0	0	0	0	22.14323164667095	0	0	0
0.9097232670617833	-291.1891820222179	1584.151068877717	0	0	0	0	0	0	0	0	0	0	0	0	20.93168409188967	0	0	0
0.911069178902486	-298.1300711357152	1566.033841606524	0	0	0	0	0	0	0	0	0	0	0	0	20.14467386807277	0	0	0
0.9124150907431887	-290.8455416011702	1557.517362228344	0	0	0	0	0	0	0	0	0	0	0	0	20.19281289068812	0	0	0
0.9137610025838914	-278.6190137846575	1548.148157734681	0	0	0	0	0	0	0	0	0	0	0	0	20.3702955801428	0	0	0
0.915106914424594	-268.3432361706962	1542.858771223655	0	0	0	0	0	0	0	0	0	0	0	0	20.54843823876292	0	0	0
0.9164528262652968	-257.1681357323569	1542.231167012916	0	0	0	0	0	0	0	0	0	0	0	0	20.83608213805314	0	0	0
0.9177987381059994	-245.9148719611477	1546.118112082135	0	0	0	0	0	0	0	0	0	0	0	0	21.20513998720538	0	0	0
0.9191446499467021	-232.8325046648545	1552.248487606213	0	0	0	0	0	0	0	0	0	0	0	0	21.66867885283266	0	0	0
0.9204905617874048	-218.4251843960491	1559.89904551832	0	0	0	0	0	0	0	0	0	0	0	0	22.19728056477605	0	0	0
0.9218364736281075	-203.2114127305697	1569.441351719451	0	0	0	0	0	0	0	0	0	0	0	0	22.78167814654966	0	0	0
0.9231823854688102	-187.7086886180762	1580.199478641617	0	0	0	0	0	0	0	0	0	0	0	0	23.3932107094964	0	0	0
0.9245282973095129	-172.3053212739002	1590.733129537493	0	0	0	0	0	0	0	0	0	0	0	0	23.99321657798334	0	0	0
0.9258742091502156	-156.377912192334	1601.621155656348	0	0	0	0	0	0	0	0	0	0	0	0	24.61258121652244	0	0	0
0.9272201209909182	-139.5604767347646	1614.883037447247	0	0	0	0	0	0	0	0	0	0	0	0	25.3003630468121	0	0	0
0.928566032831621	-122.5262916237702	1629.281710131567	0	0	0	0	0	0	0	0	0	0	0	0	26.01230322439007	0	0	0
0.9299119446723236	-105.871575965466	1642.873315709262	0	0	0	0	0	0	0	0	0	0	0	0	26.6939696843088	0	0	0
0.9312578565130263	-88.72885827330785	1655.018557306847	0	0	0	0	0	0	0	0	0	0	0	0	27.36195388784106	0	0	0
0.932603768353729	-71.28752531133509	1665.170276796924	0	0	0	0	0	0	0	0	0	0	0	0	28.00087822862381	0	0	0
0.9339496801944317	-54.57177588442995	1673.717620099823	0	0	0	0	0	0	0	0	0	0	0	0	28.58559278856777	0	0	0
0.9352955920351343	-37.97817515584271	1680.535422276128	0	0	0	0	0	0	0	0	0	0	0	0	29.13349947588333	0	0	0
0.9366415038758371	-21.95197920067061	1685.515402490147	0	0	0	0	0	0	0	0	0	0	0	0	29.62866722163258	0	0	0
0.9379874157165398	-6.340390139462635	1688.848048897628	0	0	0	0	0	0	0	0	0	0	0	0	30.07969252787817	0	0	0
0.9393333275572424	9.088634906529611	1690.344726128326	0	0	0	0	0	0	0	0	0	0	0	0	30.4909759847954	0	0	0
0.9406792393979452	23.98049513167783	1690.393157860327	0	0	0	0	0	0	0	0	0	0	0	0	30.85840671405738	0	0	0
0.9420251512386478	38.45637810015528	1689.111513726888	0	0	0	0	0	0	0	0	0	0	0	0	31.18840405552236	0	0	0
0.9433710630793505	52.83388735777547	1686.381856120712	0	0	0	0	0	0	0	0	0	0	0	0	31.48965910043103	0	0	0
0.9447169749200532	66.87939908927666	1682.372999607648	0	0	0	0	0	0	0	0	0	0	0	0	31.75809171456191	0	0	0
0.9460628867607559	80.80758254770934	1676.964366648185	0	0	0	0	0	0	0	0	0	0	0	0	31.99888469106925	0	0	0
0.9474087986014585	94.4106506746666	1670.13304317378	0	0	0	0	0	0	0	0	0	0	0	0	32.20506453211033	0	0	0
0.9487547104421612	107.6786523700842	1661.851926896193	0	0	0	0	0	0	0	0	0	0	0	0	32.37580699390434	0	0	0
0.950100622282864	120.6330906760579	1652.062843853655	0	0	0	0	0	0	0	0	0	0	0	0	32.510756815531	0	0	0
0.9514465341235666	133.2979199588292	1640.744424646123	0	0	0	0	0	0	0	0	0	0	0	0	32.61027121841458	0	0	0
0.9527924459642694	145.7768680968456	1627.846150349725	0	0	0	0	0	0	0	0	0	0	0	0	32.67688599638547	0	0	0
0.954138357804972	157.9130371941955	1613.506692768251	0	0	0	0	0	0	0	0	0	0	0	0	32.70784913702344	0	0	0
0.9554842696456747	169.9577443690161	1597.64831976229	0	0	0	0	0	0	0	0	0	0	0	0	32.71027114838233	0	0	0
0.9568301814863773	181.8410547522067	1580.347589381587	0	0	0	0	0	0	0	0	0	0	0	0	32.68341287194075	0	0	0
0.9581760933270801	193.6436878154013	1561.69469465117	0	0	0	0	0	0	0	0	0	0	0	0	32.63184651684138	0	0	0
0.9595220051677827	205.3855505652878	1541.75392744735	0	0	0	0	0	0	0	0	0	0	0	0	32.5577801745188	0	0	0
0.9608679170084854	216.9562728355915	1520.723508685431	0	0	0	0	0	0	0	0	0	0	0	0	32.46127040265756	0	0	0
0.9622138288491882	228.4178204993923	1498.643634486662	0	0	0	0	0	0	0	0	0	0	0	0	32.34551429105108	0	0	0
0.9635597406898908	239.5159571102564	1475.782809669395	0	0	0	0	0	0	0	0	0	0	0	0	32.20669734521623	0	0	0
0.9649056525305935	250.5328974962358	1452.003534679456	0	0	0	0	0	0	0	0	0	0	0	0	32.0525976970738	0	0	0
0.9662515643712962	261.3455031378949	1427.470730540866	0	0	0	0	0	0	0	0	0	0	0	0	31.88221695907526	0	0	0
0.9675974762119989	271.7925406233308	1402.484856256011	0	0	0	0	0	0	0	0	0	0	0	0	31.69527107079113	0	0	0
0.9689433880527015	282.3848080946014	1376.685332223466	0	0	0	0	0	0	0	0	0	0	0	0	31.50417493370522	0	0	0
0.9702892998934043	293.1253850292066	1350.039634552726	0	0	0	0	0	0	0	0	0	0	0	0	31.30931067978459	0	0	0
0.9716352117341069	303.7945379754692	1322.803949792138	0	0	0	0	0	0	0	0	0	0	0	0	31.10773719611822	0	0	0
0.9729811235748096	313.4896516072429	1295.982288200577	0	0	0	0	0	0	0	0	0	0	0	0	30.88348042284499	0	0	0
0.9743270354155124	324.3257695103943	1266.918750467896	0	0	0	0	0	0	0	0	0	0	0	0	30.67162512581053	0	0	0
0.975672947256215	334.8985283279255	1236.997325730991	0	0	0	0	0	0	0	0	0	0	0	0	30.44503260465253	0	0	0
0.9770188590969177	345.5614253766501	1207.425466241864	0	0	0	0	0	0	0	0	0	0	0	0	30.23515725487788	0	0	0
0.9783647709376204	357.1568422489695	1176.967124833141	0	0	0	0	0	0	0	0	0	0	0	0	30.05514862657762	0	0	0
0.9797106827783231	367.3040342561392	1145.49888508597	0	0	0	0	0	0	0	0	0	0	0	0	29.81782749152574	0	0	0
0.9810565946190257	376.1315876536808	1109.99827193019	0	0	0	0	0	0	0	0	0	0	0	0	29.48562521433736	0	0	0
0.9824025064597285	382.5654423260625	1070.883548970014	0	0	0	0	0	0	0	0	0	0	0	0	29.02686543278001	0	0	0
0.9837484183004311	384.2281236390199	1031.002432161498	0	0	0	0	0	0	0	0	0	0	0	0	28.39273616103807	0	0	0
